# xmcd CD database file generated by Grip 3.0.0
# 
# Track frame offsets:
#       182
#       12917
#       34200
#       57202
#       74882
#       95482
#       118065
#       136477
#       153357
#       177697
#       196767
#       222327
#       246545
# 
# Disc length: 3480 seconds
# 
# Revision: 1
# Processed by: cddbd v1.4PL0 Copyright (c) Steve Scherf et al.
# Submitted via: Grip 3.0.0
# 
DISCID=c90d960d
DTITLE=Michael Katon - Get On The Boogie Train
DYEAR=1993
DGENRE=Blues
TTITLE0=Wake Up Call
TTITLE1=Junior Keep On Walkin'
TTITLE2=Get On The Boogie Train
TTITLE3=You Can Run But You Can't Hide
TTITLE4=Put My Blues Back On
TTITLE5=Where The Wild Ones Go
TTITLE6=Roadtest
TTITLE7=Cadillac Assembly Line
TTITLE8=Every Girl I See
TTITLE9=Walkin' Blues
TTITLE10=The Water Won't Boil
TTITLE11=Rock Me 'Till The Hounds Come Home
TTITLE12=Love Hoo Doo
EXTD=
EXTT0=
EXTT1=
EXTT2=
EXTT3=
EXTT4=
EXTT5=
EXTT6=
EXTT7=
EXTT8=
EXTT9=
EXTT10=
EXTT11=
EXTT12=
PLAYORDER=
